<svg width="728" height="754.88525" xmlns="http://www.w3.org/2000/svg">

 <g>
  <title>Layer 1</title>
  <rect id="svg_1" transform="rotate(-33.2598 -458.654 311.246)" fill="#e6e6e6" height="524" width="33" y="613.87701" x="56.01578"/>
  <path id="svg_2" fill="#e6e6e6" d="m99.58256,99.04877l63.84438,97.34271a8.5,8.5 0 0 1 -14.21528,9.32341l-73.39682,-111.90719a60.62682,60.62682 0 0 0 -29.14936,4.78729l79.96898,121.92763a8.5,8.5 0 0 1 -14.21528,9.3234l-79.969,-121.92766a60.62685,60.62685 0 0 0 -16.00502,24.82826l73.39684,111.9072a8.5,8.5 0 0 1 -14.21528,9.3234l-63.84438,-97.3427c-1.6398,27.14157 7.20944,59.3114 26.60329,88.881c36.04421,54.95614 94.83957,80.109 131.32307,56.18052s36.8396,-87.87721 0.79539,-142.83336c-19.39387,-29.5696 -45.37404,-50.50372 -70.92153,-59.81391z"/>
  <rect id="svg_3" fill="#e6e6e6" height="524" width="33" y="204" x="256"/>
  <ellipse id="svg_4" fill="#e6e6e6" ry="119" rx="79" cy="119" cx="272"/>
  <ellipse id="svg_5" fill="#ccc" ry="97.91139" rx="65" cy="119" cx="272"/>
  <ellipse id="svg_6" fill="#e6e6e6" ry="20.88525" rx="364" cy="734" cx="364"/>
  <path id="svg_7" fill="#bcbcbc" d="m579.26782,733.69307a1162.796,1162.796 0 0 0 -412.53564,0a15.04906,15.04906 0 0 1 -17.73218,-14.79219l0,-186.90088l448,0l0,186.90088a15.04906,15.04906 0 0 1 -17.73218,14.79219z"/>
  <path id="svg_8" fill="#bcbcbc" d="m556,394a92.85808,92.85808 0 0 0 -30.39526,5.0863a179.055,179.055 0 0 0 -324.4441,-1.63928a93.00486,93.00486 0 1 0 12.16987,174.74988a179.02647,179.02647 0 0 0 300.7481,-2.16382a93.00664,93.00664 0 1 0 41.92139,-176.03308z"/>
  <path id="svg_9" fill="#3f3d56" d="m185,474l-2,0a178.40222,178.40222 0 0 1 17.24707,-76.98538l1.80762,0.85644a176.41047,176.41047 0 0 0 -17.05469,76.12894z"/>
  <path id="svg_10" fill="#3f3d56" d="m543,474l-2,0a176.52632,176.52632 0 0 0 -16.29395,-74.501l1.81641,-0.83789a178.51046,178.51046 0 0 1 16.47754,75.33889z"/>
  <path id="svg_11" fill="#3f3d56" d="m149.24121,618.9707l-0.48242,-1.94141c0.56445,-0.13964 57.40332,-14.09961 140.70019,-21.02636c76.88086,-6.39258 192.68653,-7.93457 307.78516,21.02734l-0.48828,1.93945c-114.81641,-28.88964 -230.36914,-27.35449 -307.08886,-20.97656c-83.148,6.91113 -139.8628,20.83789 -140.42579,20.97754z"/>
  <path id="svg_12" fill="#3f3d56" d="m149.24121,645.9707l-0.48242,-1.94141c0.56445,-0.13964 57.40332,-14.09961 140.70019,-21.02636c76.88086,-6.39258 192.68653,-7.93457 307.78516,21.02734l-0.48828,1.93945c-114.81641,-28.88964 -230.36914,-27.35254 -307.08886,-20.97656c-83.148,6.91113 -139.8628,20.83789 -140.42579,20.97754z"/>
  <path id="svg_13" fill="#3f3d56" d="m149.24121,672.9707l-0.48242,-1.94141c0.56445,-0.13964 57.40332,-14.09961 140.70019,-21.02636c76.88086,-6.39258 192.68653,-7.93457 307.78516,21.02734l-0.48828,1.93945c-114.81641,-28.88964 -230.36914,-27.35254 -307.08886,-20.97656c-83.148,6.91113 -139.8628,20.83789 -140.42579,20.97754z"/>
  <path id="svg_14" fill="#2f2e41" d="m517.26693,526.15596l-24.23035,-8.23834l23.26113,-118.72871l-15.992,-1.45382c-15.594,11.96435 -36.35984,16.65481 -62.99891,13.08438l42.64542,64.45274l-21.745,15.34942l-69.368,-83.20523a20.866,20.866 0 0 1 -4.83922,-13.36151l0,0a20.866,20.866 0 0 1 15.0905,-20.05076l74.07719,-21.33751l86.74466,9.69214c13.11467,19.99417 13.62744,33.89954 -6.33645,37.911l-36.30897,125.8862z"/>
  <path id="svg_15" fill="#2f2e41" d="m492.46691,572.34368l0,0a15.95869,15.95869 0 0 1 -13.86555,-21.711l12.046,-30.97551c6.11869,-11.59112 14.5164,-10.14011 24.43261,0l4.84611,14.21526a9.17534,9.17534 0 0 1 -0.53485,7.176l-11.7415,22.70019a15.95871,15.95871 0 0 1 -15.18282,8.59506z"/>
  <path id="svg_16" fill="#2f2e41" d="m461.15218,531.78096l0,0a15.95869,15.95869 0 0 1 -13.86555,-21.711l12.046,-30.97551c6.11869,-11.59113 14.51641,-10.14012 24.43261,0l4.84611,14.21525a9.17537,9.17537 0 0 1 -0.53485,7.176l-11.7415,22.70023a15.9587,15.9587 0 0 1 -15.18282,8.59503z"/>
  <circle id="svg_17" fill="#ffb9b9" r="27.13799" cy="212.13062" cx="476.55994"/>
  <polygon id="svg_18" fill="#ffb9b9" points="518.721 250.415 481.406 269.799 473.652 234.907 499.336 218.915 518.721 250.415"/>
  <path id="svg_19" fill="#3f3d56" d="m563.7892,367.20486c-37.23393,-11.24605 -71.01788,-17.07317 -95.46758,-8.23832c8.42738,-23.70818 -7.12737,-59.91146 -24.23035,-96.9214c7.37949,-9.64677 19.14576,-13.38347 32.46867,-15.02282c14.5769,10.5844 24.74122,3.79091 32.46867,-12.59978c16.85358,-0.67652 33.095,5.29186 48.94531,15.50743c-12.39037,39.68604 -10.15992,78.76558 5.81528,117.27489z"/>
  <path id="svg_20" fill="#3f3d56" d="m467.837,364.78183c-5.87952,3.4656 -11.3058,9.30325 -16.47664,16.47664c-8.73817,-5.349 -16.42816,-11.439 -22.48592,-18.68294a40.01122,40.01122 0 0 1 -7.33032,-37.42892l16.56053,-53.82173a23.60967,23.60967 0 0 1 7.67755,-11.38054l2.18592,-1.776l21.80731,41.19159l-21.80731,40.707c2.76544,7.41461 10.91455,15.97879 19.86888,24.7149z"/>
  <path id="svg_21" fill="#ffb9b9" d="m475.343,405.8174l0,0a14.00455,14.00455 0 0 1 -19.66674,-10.71872l-3.60426,-24.67451l12.59979,-6.7845l15.9909,20.93355a14.00455,14.00455 0 0 1 -5.31969,21.24418z"/>
  <path id="svg_22" fill="#f2d441" d="m503.94024,210.94309l-4.63369,0.13763l-12.853,-18.20724c-16.46951,1.70257 -29.96494,8.858 -41.38524,19.81828l-1.15795,-7.71966a29.10153,29.10153 0 0 1 22.90286,-32.81892l0.00006,0a29.10153,29.10153 0 0 1 34.57213,23.6573l2.55483,15.13261z"/>
  <path id="svg_23" fill="#ffb9b9" d="m451.82806,381.26825l0,0a14.00456,14.00456 0 0 1 10.71872,-19.66675l24.67452,-3.60414l6.7845,12.59978l-20.93356,15.99088a14.00455,14.00455 0 0 1 -21.24418,-5.31977z"/>
  <path id="svg_24" fill="#3f3d56" d="m568.49034,358.8238c-23.4754,1.82279 -49.10633,9.14326 -75.93837,19.527a37.12074,37.12074 0 0 0 -8.23832,-21.80731c24.37008,-6.41874 46.48406,-13.95144 60.09127,-25.68417l-8.23832,-62.0297l17.93046,-20.35349l3.09274,1.6136a20.65228,20.65228 0 0 1 10.4691,13.14326c7.57071,29.449 10.93351,57.66486 8.62195,84.21782a10.47079,10.47079 0 0 1 -7.79051,11.37299z"/>
  <path id="svg_25" fill="#3d3c49" d="m95.88594,728.11182q-32.74851,20.483 -65.49722,-0.01716a4.441,4.441 0 0 1 -2.10125,-4.0963l6.81241,-88.56136l55.10049,0l7.78288,88.5302a4.44,4.44 0 0 1 -2.09731,4.14462z"/>
  <ellipse id="svg_26" fill="#3f3d56" ry="10.01827" rx="27.80438" cy="636.43883" cx="62.39599"/>
  <path id="svg_27" fill="#bfbfbf" d="m84.18941,633.05699q-21.73251,15.28772 -42.07674,0l0,-16.02923l42.07674,0l0,16.02923z"/>
  <ellipse id="svg_28" fill="#3d3c49" ry="8.01462" rx="21.03837" cy="617.02776" cx="63.15104"/>
  <ellipse id="svg_29" fill="#e6e6e6" ry="1.00183" rx="2.00365" cy="616.02594" cx="64.15287"/>
  <ellipse id="svg_30" fill="#e6e6e6" ry="1.00183" rx="2.00365" cy="616.02594" cx="73.61397"/>
  <ellipse id="svg_31" fill="#e6e6e6" ry="1.00183" rx="2.00365" cy="618.39121" cx="68.88342"/>
  <ellipse id="svg_32" fill="#e6e6e6" ry="1.00183" rx="2.00365" cy="618.39121" cx="49.96121"/>
  <ellipse id="svg_33" fill="#e6e6e6" ry="1.00183" rx="2.00365" cy="616.02594" cx="54.69176"/>
  <ellipse id="svg_34" fill="#e6e6e6" ry="1.00183" rx="2.00365" cy="619.57385" cx="59.42232"/>
  <path id="svg_35" fill="#3d3c49" d="m700.88594,728.11182q-32.74851,20.483 -65.49722,-0.01716a4.441,4.441 0 0 1 -2.10125,-4.0963l6.81241,-88.56136l55.10049,0l7.78288,88.5302a4.44,4.44 0 0 1 -2.09731,4.14462z"/>
  <ellipse id="svg_36" fill="#3f3d56" ry="10.01827" rx="27.80438" cy="636.43883" cx="667.39599"/>
  <path id="svg_37" fill="#bfbfbf" d="m689.18941,633.05699q-21.73251,15.28772 -42.07674,0l0,-16.02923l42.07674,0l0,16.02923z"/>
  <ellipse id="svg_38" fill="#3d3c49" ry="8.01462" rx="21.03837" cy="616.02776" cx="668.15104"/>
  <ellipse id="svg_39" fill="#e6e6e6" ry="1.00183" rx="2.00365" cy="616.02594" cx="669.15287"/>
  <ellipse id="svg_40" fill="#e6e6e6" ry="1.00183" rx="2.00365" cy="616.02594" cx="678.61397"/>
  <ellipse id="svg_41" fill="#e6e6e6" ry="1.00183" rx="2.00365" cy="618.39121" cx="673.88342"/>
  <ellipse id="svg_42" fill="#e6e6e6" ry="1.00183" rx="2.00365" cy="618.39121" cx="654.96121"/>
  <ellipse id="svg_43" fill="#e6e6e6" ry="1.00183" rx="2.00365" cy="616.02594" cx="659.69176"/>
  <ellipse id="svg_44" fill="#e6e6e6" ry="1.00183" rx="2.00365" cy="619.57385" cx="664.42232"/>
 </g>
</svg>